Pride and Prejudice

Format                           : AVI
Format/Info                      : Audio Video Interleave
File size                        : 1.39 GiB
Duration                         : 2h 0mn
Overall bit rate                 : 1 641 Kbps

Video
Format                           : MPEG-4 Visual
Format profile                   : Simple@L3
Format settings, BVOP            : Yes
Format settings, QPel            : No
Format settings, GMC             : No warppoints
Format settings, Matrix          : Default (H.263)
Codec ID                         : XVID
Codec ID/Hint                    : XviD
Duration                         : 2h 0mn
Bit rate                         : 1 500 Kbps
Width                            : 640 pixels
Height                           : 480 pixels
Display aspect ratio             : 4/3
Frame rate                       : 29.970 fps
Resolution                       : 24 bits
Scan type                        : Progressive
Bits/(Pixel*Frame)               : 0.163
Stream size                      : 1.27 GiB (91%)

Audio
Format                           : MPEG Audio
Format version                   : Version 1
Format profile                   : Layer 3
Codec ID                         : 55
Codec ID/Hint                    : MP3
Duration                         : 2h 0mn
Bit rate mode                    : Constant
Bit rate                         : 128 Kbps
Channel(s)                       : 2 channels
Sampling rate                    : 44.1 KHz
Resolution                       : 16 bits
Stream size                      : 110 MiB (8%)
Alignment                        : Aligned on interleaves
Interleave, duration             : 26 ms (0.78 video frame)
Writing library                  : LAME3.97

Synopsis:  The glorious world of Jane Austen is at last brought back to the big screen in all its romance, wit, and emotional force in Pride & Prejudice. Faithful to the setting and period of the beloved novel and filmed entirely on location in the U.K, this is the first movie version of the story in 65 years. The classic tale of love and misunderstanding unfolds in class-conscious England near the close of the 18th century. The five Bennet sisters – Elizabeth, or Lizzie (Keira Knightley), Jane (Rosamund Pike), Lydia (Jena Malone), Mary (Talulah Riley), and Kitty (Carey Mulligan) – have been raised well aware of their mother’s (two-time Academy Award nominee Brenda Blethyn) fixation on finding them husbands and securing set futures. The spirited and intelligent Elizabeth, however, strives to live her life with a broader perspective, as encouraged by her doting father (two-time Golden Globe Award winner Donald Sutherland). When wealthy bachelor Mr. Bingley (Simon Woods) takes up residence in a nearby mansion, the Bennets are abuzz. Amongst the man’s sophisticated circle of London friends and the influx of young militia officers, surely there will be no shortage of suitors for the Bennet sisters. Eldest daughter Jane, serene and beautiful, seems poised to win Mr. Bingley’s heart. For her part, Lizzie meets with the handsome and – it would seem – snobbish Mr. Darcy (Matthew Macfadyen), and the battle of the sexes is joined. Their encounters are frequent and spirited yet far from encouraging. Lizzie finds herself even less inclined to accept a marriage proposal from a distant cousin, Mr. Collins (Tom Hollander), and – supported by her father – stuns her mother and Mr. Collins by declining. When the heretofore good-natured Mr. Bingley abruptly departs for London, devastating Jane, Lizzie holds Mr. Darcy culpable for contributing to the heartbreak. But a crisis involving youngest sister Lydia soon opens Lizzie’s eyes to the true nature of her relationship with Mr. Darcy. The ensuing rush of feelings leaves no one unchanged, and inspires the Bennets and everyone around them to reaffirm what is most important in life. 

Cast
Keira Knightley, Matthew Macfadyen, Brenda Blethyn, Donald Sutherland, Tom Hollander, Rosamund Pike, Jena Malone, and Judi Dench.

Casting by Jina Jay. 
Music Supervisor, Nick Angel. 
Music by Dario Marianelli. 
Hair and Make-Up Designer, Fae Hammond. 
Costume Designer, Jacqueline Durran. 
Editor, Paul Tothill. 
Production Designer, Sarah Greenwood. 
Director of Photography, Roman Osin. 
Co-Producer, Jane Frazer. 
Executive Producers, Debra Hayward, Liza Chasin. 
Based on the novel by Jane Austen. 
Screenplay by Deborah Moggach. 
Produced by Tim Bevan, Eric Fellner, Paul Webster. 
Directed by Joe Wright. 